<svg xmlns="http://www.w3.org/2000/svg" width="985.38" height="985.38" viewBox="0 0 985.38 985.38">
  <path d="M492.69,492.69m-492.69,0a492.69,492.69 0,1 1,985.38 0a492.69,492.69 0,1 1,-985.38 0" fill="#2f3e4c" />
  <path d="M492.69,492.69m-418.22,0a418.22,418.22 0,1 1,836.44 0a418.22,418.22 0,1 1,-836.44 0" fill="#86b9e9" />
  <path d="M899.27,544.94l-161.6,53l64.8,157.23l-164.6,-42.77l-30.49,167.3l-115.34,-124.97l-116.11,124.26l-29.47,-167.49l-164.85,41.76l65.76,-156.83l-161.26,-54l140.12,-96.38l-106.48,-132.61l169.99,-5.33l-17.88,-169.12l145.88,87.41l76.4,-151.93l75.45,152.4l146.42,-86.51l-18.92,169.01l169.95,6.37l-107.29,131.95l139.52,97.25z" fill="#f2bf65" />
  <path d="M831.05,534l-134.46,44.1l53.92,130.83l-136.96,-35.59l-25.37,139.21l-95.97,-103.99l-96.62,103.4l-24.51,-139.37l-137.17,34.75l54.72,-130.5l-134.19,-44.93l116.59,-80.19l-88.59,-110.34l141.44,-4.44l-14.88,-140.72l121.38,72.74l63.57,-126.42l62.79,126.81l121.83,-71.99l-15.75,140.63l141.41,5.3l-89.27,109.8l116.09,80.91z" fill="#de5550" />
  <path d="M762.78,522.96l-107.36,35.21l43.05,104.46l-109.35,-28.42l-20.26,111.15l-76.63,-83.02l-77.13,82.55l-19.58,-111.27l-109.52,27.74l43.69,-104.19l-107.13,-35.87l93.08,-64.03l-70.73,-88.1l112.93,-3.54l-11.88,-112.36l96.91,58.08l50.76,-100.94l50.13,101.25l97.27,-57.48l-12.57,112.28l112.9,4.24l-71.27,87.66l92.69,64.6z" fill="#fff" />
  <path d="M688.01,753.68l-157.31,-23.78 -23.19,-195.84 -63.3,44.49 -17.36,135.66 -134.58,-20.34 90.46,-444.54 102.01,15.42 -24,183.68 171.57,-162 103.71,87.33 -144.18,101.4 96.18,278.53Z" fill="none" stroke="#fff" stroke-width="20" />
  <path d="M688.01,753.68l-157.31,-23.78 -23.19,-195.84 -63.3,44.49 -17.36,135.66 -134.58,-20.34 90.46,-444.54 102.01,15.42 -24,183.68 171.57,-162 103.71,87.33 -144.18,101.4 96.18,278.53Z" fill="#000000" />
  <path d="M688.01,753.68l-157.31,-23.78 -23.19,-195.84 -63.3,44.49 -17.36,135.66 -134.58,-20.34 90.46,-444.54 102.01,15.42 -24,183.68 171.57,-162 103.71,87.33 -144.18,101.4 96.18,278.53Z" fill="#231815" />
</svg>
