<?xml version="1.0" encoding="UTF-8"?>
<svg id="_图层_2" data-name="图层 2" xmlns="http://www.w3.org/2000/svg" viewBox="0 0 251.08 251.08">
  <defs>
    <style>
      .cls-1 {
        fill: #231815;
      }

      .cls-2 {
        fill: #de5550;
      }

      .cls-3 {
        fill: none;
        stroke: #fff;
        stroke-miterlimit: 10;
        stroke-width: 8px;
      }

      .cls-4 {
        fill: #fff;
      }

      .cls-5 {
        fill: #2f3e4c;
      }

      .cls-6 {
        fill: #86b9e9;
      }

      .cls-7 {
        fill: #f2bf65;
      }
    </style>
  </defs>
  <g id="_图层_1-2" data-name="图层 1">
    <circle class="cls-5" cx="125.54" cy="125.54" r="125.54"/>
    <circle class="cls-6" cx="125.54" cy="125.54" r="101.61"/>
    <g>
      <polygon class="cls-7" points="219.79 141.48 182.23 153.8 197.29 190.35 159.03 180.4 151.94 219.29 125.13 190.24 98.14 219.13 91.29 180.19 52.97 189.9 68.26 153.45 30.77 140.89 63.34 118.49 38.59 87.66 78.1 86.43 73.95 47.11 107.86 67.43 125.62 32.12 143.16 67.54 177.19 47.43 172.79 86.72 212.3 88.2 187.36 118.87 219.79 141.48"/>
      <polygon class="cls-2" points="203.93 138.93 172.68 149.19 185.21 179.6 153.37 171.32 147.48 203.68 125.17 179.51 102.71 203.55 97.01 171.15 65.13 179.23 77.85 148.89 46.65 138.45 73.76 119.81 53.16 94.16 86.04 93.13 82.58 60.42 110.8 77.33 125.57 47.94 140.17 77.42 168.49 60.68 164.83 93.37 197.7 94.61 176.95 120.13 203.93 138.93"/>
      <polygon class="cls-4" points="188.06 136.37 163.11 144.55 173.11 168.84 147.7 162.23 142.99 188.07 125.17 168.77 107.24 187.96 102.69 162.09 77.24 168.54 87.39 144.32 62.49 135.98 84.13 121.1 67.68 100.62 93.93 99.8 91.17 73.68 113.7 87.18 125.5 63.72 137.15 87.25 159.76 73.89 156.84 99.99 183.08 100.98 166.52 121.35 188.06 136.37"/>
      <g>
        <path class="cls-3" d="M172.38,202.75l-41.19-6.23-6.07-51.28-16.57,11.65-4.55,35.52-35.23-5.33,23.68-116.39,26.71,4.04-6.28,48.09,44.92-42.41,27.15,22.87-37.75,26.55,25.18,72.92Z"/>
        <path d="M172.38,202.75l-41.19-6.23-6.07-51.28-16.57,11.65-4.55,35.52-35.23-5.33,23.68-116.39,26.71,4.04-6.28,48.09,44.92-42.41,27.15,22.87-37.75,26.55,25.18,72.92Z"/>
        <path class="cls-1" d="M172.38,202.75l-41.19-6.23-6.07-51.28-16.57,11.65-4.55,35.52-35.23-5.33,23.68-116.39,26.71,4.04-6.28,48.09,44.92-42.41,27.15,22.87-37.75,26.55,25.18,72.92Z"/>
      </g>
    </g>
  </g>
</svg>